<mxfile host="app.diagrams.net" modified="2024-02-25T08:07:03.815Z" agent="Mozilla/5.0 (Macintosh; Intel Mac OS X 10_15_7) AppleWebKit/537.36 (KHTML, like Gecko) Chrome/122.0.0.0 Safari/537.36" version="23.1.6" etag="o23pCqRn-EN_cCjezQFB" type="github">
  <diagram name="Sayfa -1" id="IddHNCm2EqLn5U7rhdiA">
    <mxGraphModel>
      <root>
        <mxCell id="0" />
        <mxCell id="1" parent="0" />
      </root>
    </mxGraphModel>
  </diagram>
</mxfile>
